<svg xmlns="http://www.w3.org/2000/svg" xmlns:xlink="http://www.w3.org/1999/xlink" width="441.592" height="169.346" viewBox="0 0 441.592 169.346"><defs><style>.a{fill:#fcfcfc;}.b,.c{fill:#fff;}.b,.d{font-size:10px;font-family:NHaasGroteskDSPro-55Rg, Neue Haas Grotesk Display Pro;letter-spacing:0.072em;}.c,.g{font-size:15px;}.c,.e,.f,.g{font-family:NHaasGroteskDSPro-65Md, Neue Haas Grotesk Display Pro;font-weight:500;}.d{fill:#b1b1b1;}.e,.f,.g{fill:#171717;}.e{font-size:16px;}.f{font-size:17px;}.h{filter:url(#c);}.i{filter:url(#a);}</style><filter id="a" x="0" y="0" width="441.592" height="169.346" filterUnits="userSpaceOnUse"><feOffset dy="3" input="SourceAlpha"/><feGaussianBlur stdDeviation="16.5" result="b"/><feFlood flood-opacity="0.161"/><feComposite operator="in" in2="b"/><feComposite in="SourceGraphic"/></filter><filter id="c" x="166.056" y="29.932" width="110.395" height="110.395" filterUnits="userSpaceOnUse"><feOffset dy="3" input="SourceAlpha"/><feGaussianBlur stdDeviation="5" result="d"/><feFlood flood-opacity="0.161"/><feComposite operator="in" in2="d"/><feComposite in="SourceGraphic"/></filter></defs><g transform="translate(5654.5 -931.068)"><g class="i" transform="matrix(1, 0, 0, 1, -5654.5, 931.07)"><rect class="a" width="342.592" height="70.346" rx="5" transform="translate(49.5 46.5)"/></g><g class="h" transform="matrix(1, 0, 0, 1, -5654.5, 931.07)"><rect width="80.395" height="80.395" rx="5" transform="translate(181.06 41.93)"/></g><text class="b" transform="translate(-5442.383 1001.185)"><tspan x="0" y="0">We</tspan></text><text class="c" transform="translate(-5434.729 1027.198)"><tspan x="-4.463" y="0">4</tspan></text><text class="d" transform="translate(-5358.729 1001.185)"><tspan x="-6.05" y="0">Th</tspan></text><text class="e" transform="translate(-5364.729 1028.198)"><tspan x="0" y="0">5</tspan></text><text class="d" transform="translate(-5577.901 1001.185)"><tspan x="-7.265" y="0">Mo</tspan></text><text class="e" transform="translate(-5577.247 1028.198)"><tspan x="-4.376" y="0">2</tspan></text><text class="d" transform="translate(-5293.037 1001.185)"><tspan x="-4.79" y="0">Fr</tspan></text><text class="f" transform="translate(-5298.037 1029.198)"><tspan x="0" y="0">6</tspan></text><text class="d" transform="translate(-5510.383 1001.185)"><tspan x="-5.61" y="0">Tu</tspan></text><text class="g" transform="translate(-5510.556 1027.198)"><tspan x="-4.253" y="0">3</tspan></text></g></svg>