<svg xmlns="http://www.w3.org/2000/svg" width="110.885" height="41.352" viewBox="0 0 110.885 41.352"><defs><style>.a{font-size:20px;font-family:NHaasGroteskDSPro-75Bd, Neue Haas Grotesk Display Pro;letter-spacing:-0.024em;}</style></defs><g transform="translate(-102.115 -59.79)"><path d="M475.391-318.666a2.023,2.023,0,0,1,2.021-2.02,2.024,2.024,0,0,1,2.021,2.02,2.024,2.024,0,0,1-2.021,2.021,2.024,2.024,0,0,1-2.021-2.021Zm-7.533-1.546a2.757,2.757,0,0,1,2.753-2.753,2.757,2.757,0,0,1,2.755,2.753,2.757,2.757,0,0,1-2.755,2.753,2.757,2.757,0,0,1-2.753-2.757Zm-2.816.944Zm0,0h-5.621A2.42,2.42,0,0,1,457-321.688v-33.888A2.42,2.42,0,0,1,459.421-358h18.154A2.421,2.421,0,0,1,480-355.576v23.033a7,7,0,0,0-.726-.039,7.056,7.056,0,0,0-2.717.539,7.106,7.106,0,0,0-3.873,3.873,7.064,7.064,0,0,0-.472,1.733,1.3,1.3,0,0,1-1.089,1.089,7.194,7.194,0,0,0-5.6,4.34,6.987,6.987,0,0,0-.471,1.738Zm-4.41-22.394a.605.605,0,0,0,.605.605h3.631a.605.605,0,0,0,.605-.605.605.605,0,0,0-.605-.605h-3.631A.605.605,0,0,0,460.631-341.662Zm0-2.421a.605.605,0,0,0,.605.605h9.682a.6.6,0,0,0,.6-.605.605.605,0,0,0-.6-.605h-9.682A.605.605,0,0,0,460.631-344.082Zm0-2.421a.605.605,0,0,0,.605.605h9.682a.6.6,0,0,0,.6-.605.605.605,0,0,0-.6-.605h-9.682A.605.605,0,0,0,460.631-346.5Zm8.2-7.02a1.21,1.21,0,0,0,1.21,1.21,1.21,1.21,0,0,0,1.21-1.21,1.21,1.21,0,0,0-1.21-1.21A1.21,1.21,0,0,0,468.832-353.522Zm-4.093,0a1.21,1.21,0,0,0,1.21,1.21,1.21,1.21,0,0,0,1.21-1.21,1.21,1.21,0,0,0-1.21-1.21A1.21,1.21,0,0,0,464.739-353.522Zm-3.917,0a1.21,1.21,0,0,0,1.21,1.21,1.21,1.21,0,0,0,1.21-1.21,1.21,1.21,0,0,0-1.21-1.21,1.21,1.21,0,0,0-1.212,1.21Zm17.2,25.373a1.657,1.657,0,0,1,1.655-1.653,1.656,1.656,0,0,1,1.654,1.653,1.658,1.658,0,0,1-1.654,1.656,1.658,1.658,0,0,1-1.656-1.656Z" transform="translate(-354.885 417.786)"/><text class="a" transform="translate(136 84)"><tspan x="0" y="0">moduble</tspan></text></g></svg>